<mxfile host="Electron" modified="2023-08-27T22:22:22.992Z" agent="Mozilla/5.0 (Windows NT 10.0; Win64; x64) AppleWebKit/537.36 (KHTML, like Gecko) draw.io/21.6.8 Chrome/114.0.5735.289 Electron/25.5.0 Safari/537.36" etag="F5Rslr-NGlr2t6fXq3bq" version="21.6.8" type="device">
  <diagram name="Seite-1" id="3bJTxwIxubii4uImqAV2">
    <mxGraphModel dx="1418" dy="828" grid="1" gridSize="5" guides="1" tooltips="1" connect="1" arrows="1" fold="1" page="1" pageScale="1" pageWidth="827" pageHeight="1169" math="1" shadow="0">
      <root>
        <mxCell id="0" />
        <mxCell id="1" parent="0" />
        <mxCell id="2N6IUonwRyo1CEOqqImY-4" value="y" style="endArrow=classic;html=1;rounded=0;labelBackgroundColor=none;fillColor=#a20025;strokeColor=#FF0000;" parent="1" edge="1">
          <mxGeometry x="0.92" y="13" width="50" height="50" relative="1" as="geometry">
            <mxPoint x="183" y="510" as="sourcePoint" />
            <mxPoint x="183" y="360" as="targetPoint" />
            <mxPoint as="offset" />
          </mxGeometry>
        </mxCell>
        <mxCell id="2N6IUonwRyo1CEOqqImY-20" value="x" style="endArrow=classic;html=1;rounded=0;exitX=1;exitY=0.5;exitDx=0;exitDy=0;labelBackgroundColor=none;fillColor=#a20025;strokeColor=#FF0000;" parent="1" source="2N6IUonwRyo1CEOqqImY-15" edge="1">
          <mxGeometry x="0.9389" y="-10" width="50" height="50" relative="1" as="geometry">
            <mxPoint x="193" y="520" as="sourcePoint" />
            <mxPoint x="510" y="510" as="targetPoint" />
            <mxPoint as="offset" />
          </mxGeometry>
        </mxCell>
        <mxCell id="2N6IUonwRyo1CEOqqImY-10" value="" style="rounded=0;whiteSpace=wrap;html=1;rotation=-105;direction=north;fillColor=#99FF99;strokeColor=#000000;" parent="1" vertex="1">
          <mxGeometry x="306.84" y="365.39" width="15" height="112.76" as="geometry" />
        </mxCell>
        <mxCell id="2N6IUonwRyo1CEOqqImY-15" value="" style="rounded=0;whiteSpace=wrap;html=1;rotation=-135;direction=north;fillColor=#99FF99;strokeColor=#000000;" parent="1" vertex="1">
          <mxGeometry x="210.86" y="424.14" width="15" height="100" as="geometry" />
        </mxCell>
        <mxCell id="2N6IUonwRyo1CEOqqImY-2" value="$$\beta$$" style="ellipse;whiteSpace=wrap;html=1;aspect=fixed;strokeColor=#000000;fillColor=#FFD966;" parent="1" vertex="1">
          <mxGeometry x="240" y="424.14" width="30" height="30" as="geometry" />
        </mxCell>
        <mxCell id="2N6IUonwRyo1CEOqqImY-16" value="$$\alpha$$" style="ellipse;whiteSpace=wrap;html=1;aspect=fixed;fillColor=#FFD966;strokeColor=#000000;" parent="1" vertex="1">
          <mxGeometry x="170" y="494.14" width="30" height="30" as="geometry" />
        </mxCell>
        <mxCell id="2N6IUonwRyo1CEOqqImY-22" value="y&#39;" style="endArrow=classic;html=1;rounded=0;exitX=0;exitY=0.5;exitDx=0;exitDy=0;dashed=1;dashPattern=1 4;labelBackgroundColor=none;fillColor=#0050ef;strokeColor=#0000FF;" parent="1" source="2N6IUonwRyo1CEOqqImY-14" edge="1">
          <mxGeometry x="0.9367" y="10" width="50" height="50" relative="1" as="geometry">
            <mxPoint x="482" y="434.23694158246997" as="sourcePoint" />
            <mxPoint x="500" y="360" as="targetPoint" />
            <mxPoint as="offset" />
          </mxGeometry>
        </mxCell>
        <mxCell id="2N6IUonwRyo1CEOqqImY-23" value="x&#39;" style="endArrow=classic;html=1;rounded=0;exitX=0;exitY=0.5;exitDx=0;exitDy=0;dashed=1;dashPattern=1 2;labelBackgroundColor=none;fillColor=#0050ef;strokeColor=#0000FF;" parent="1" source="2N6IUonwRyo1CEOqqImY-14" edge="1">
          <mxGeometry x="1" y="-10" width="50" height="50" relative="1" as="geometry">
            <mxPoint x="491" y="444" as="sourcePoint" />
            <mxPoint x="530" y="450" as="targetPoint" />
            <mxPoint x="3" as="offset" />
          </mxGeometry>
        </mxCell>
        <mxCell id="2N6IUonwRyo1CEOqqImY-25" value="$$l_2$$" style="endArrow=baseDash;html=1;rounded=0;dashed=1;dashPattern=1 4;startArrow=baseDash;startFill=0;endFill=0;labelBackgroundColor=none;" parent="1" edge="1">
          <mxGeometry x="-0.0154" y="16" width="50" height="50" relative="1" as="geometry">
            <mxPoint x="245" y="415" as="sourcePoint" />
            <mxPoint x="370" y="380" as="targetPoint" />
            <mxPoint as="offset" />
          </mxGeometry>
        </mxCell>
        <mxCell id="2N6IUonwRyo1CEOqqImY-26" value="$$l_3$$" style="endArrow=baseDash;html=1;rounded=0;dashed=1;dashPattern=1 4;startArrow=baseDash;startFill=0;endFill=0;labelBackgroundColor=none;" parent="1" edge="1">
          <mxGeometry x="-0.0154" y="16" width="50" height="50" relative="1" as="geometry">
            <mxPoint x="380" y="380" as="sourcePoint" />
            <mxPoint x="485" y="410" as="targetPoint" />
            <mxPoint as="offset" />
          </mxGeometry>
        </mxCell>
        <mxCell id="2N6IUonwRyo1CEOqqImY-27" value="$$l_1$$" style="endArrow=baseDash;html=1;rounded=0;dashed=1;dashPattern=1 4;startArrow=baseDash;startFill=0;endFill=0;labelBackgroundColor=none;" parent="1" edge="1">
          <mxGeometry x="-0.0154" y="16" width="50" height="50" relative="1" as="geometry">
            <mxPoint x="170" y="485" as="sourcePoint" />
            <mxPoint x="235" y="415" as="targetPoint" />
            <mxPoint as="offset" />
          </mxGeometry>
        </mxCell>
        <mxCell id="2N6IUonwRyo1CEOqqImY-14" value="" style="rounded=0;whiteSpace=wrap;html=1;rotation=-75;direction=north;fillColor=#99FF99;strokeColor=#000000;" parent="1" vertex="1">
          <mxGeometry x="422.98" y="368.3" width="15" height="104.76" as="geometry" />
        </mxCell>
        <mxCell id="2N6IUonwRyo1CEOqqImY-18" value="$$\gamma$$" style="ellipse;whiteSpace=wrap;html=1;aspect=fixed;fillColor=#FFD966;strokeColor=#000000;" parent="1" vertex="1">
          <mxGeometry x="360" y="394.14" width="30" height="30" as="geometry" />
        </mxCell>
        <mxCell id="2N6IUonwRyo1CEOqqImY-28" value="$$(x, y)$$&amp;nbsp;" style="text;html=1;align=center;verticalAlign=middle;resizable=0;points=[];autosize=1;strokeColor=none;fillColor=none;" parent="1" vertex="1">
          <mxGeometry x="440" y="448.15" width="80" height="30" as="geometry" />
        </mxCell>
        <mxCell id="2N6IUonwRyo1CEOqqImY-29" value="Gegeben:&amp;nbsp;" style="text;html=1;align=center;verticalAlign=middle;resizable=0;points=[];autosize=1;strokeColor=none;fillColor=none;" parent="1" vertex="1">
          <mxGeometry x="245" y="510" width="75" height="30" as="geometry" />
        </mxCell>
        <mxCell id="2N6IUonwRyo1CEOqqImY-32" value="Gesucht:&amp;nbsp;" style="text;html=1;align=center;verticalAlign=middle;resizable=0;points=[];autosize=1;strokeColor=none;fillColor=none;" parent="1" vertex="1">
          <mxGeometry x="382.5" y="510" width="70" height="30" as="geometry" />
        </mxCell>
        <mxCell id="2N6IUonwRyo1CEOqqImY-33" value="" style="shape=flexArrow;endArrow=classic;html=1;rounded=0;width=3.6538461538461537;endSize=2.3846153846153846;endWidth=10.25887573964497;" parent="1" edge="1">
          <mxGeometry width="50" height="50" relative="1" as="geometry">
            <mxPoint x="320" y="542.02" as="sourcePoint" />
            <mxPoint x="370" y="542.02" as="targetPoint" />
          </mxGeometry>
        </mxCell>
        <mxCell id="3QRMrKg48j471u2sYYjF-1" value="" style="verticalLabelPosition=bottom;html=1;verticalAlign=top;strokeWidth=0.4;shape=mxgraph.lean_mapping.physical_pull;pointerEvents=1;perimeterSpacing=1;fillColor=#000000;strokeColor=#000000;shadow=0;" parent="1" vertex="1">
          <mxGeometry x="165" y="489.14" width="40" height="40" as="geometry" />
        </mxCell>
        <mxCell id="3QRMrKg48j471u2sYYjF-2" value="" style="verticalLabelPosition=bottom;html=1;verticalAlign=top;strokeWidth=0.4;shape=mxgraph.lean_mapping.physical_pull;pointerEvents=1;perimeterSpacing=1;fillColor=#000000;strokeColor=#000000;shadow=0;" parent="1" vertex="1">
          <mxGeometry x="235" y="419.14" width="40" height="40" as="geometry" />
        </mxCell>
        <mxCell id="3QRMrKg48j471u2sYYjF-3" value="" style="verticalLabelPosition=bottom;html=1;verticalAlign=top;strokeWidth=0.4;shape=mxgraph.lean_mapping.physical_pull;pointerEvents=1;perimeterSpacing=1;fillColor=#000000;strokeColor=#000000;shadow=0;" parent="1" vertex="1">
          <mxGeometry x="355" y="389.14" width="40" height="40" as="geometry" />
        </mxCell>
        <mxCell id="3QRMrKg48j471u2sYYjF-4" value="" style="shape=cross;whiteSpace=wrap;html=1;rotation=-45;size=0.09428090415820663;fillColor=#FF0000;strokeColor=#000000;strokeWidth=0.2;" parent="1" vertex="1">
          <mxGeometry x="477.49" y="430.55" width="7.67" height="7.25" as="geometry" />
        </mxCell>
        <mxCell id="3QRMrKg48j471u2sYYjF-12" value="$$(\alpha,\beta,\gamma) $$" style="text;html=1;align=center;verticalAlign=middle;resizable=0;points=[];autosize=1;strokeColor=none;fillColor=none;" parent="1" vertex="1">
          <mxGeometry x="332.5" y="527.14" width="170" height="30" as="geometry" />
        </mxCell>
        <mxCell id="3QRMrKg48j471u2sYYjF-13" value="$$(x,y)$$" style="text;html=1;align=center;verticalAlign=middle;resizable=0;points=[];autosize=1;strokeColor=none;fillColor=none;" parent="1" vertex="1">
          <mxGeometry x="247.5" y="527.14" width="70" height="30" as="geometry" />
        </mxCell>
      </root>
    </mxGraphModel>
  </diagram>
</mxfile>
